<svg width="14" height="14" viewBox="0 0 14 14" fill="none" xmlns="http://www.w3.org/2000/svg">
<path d="M7 4.08325V12.2499" stroke="#9c64f7" stroke-width="1.16667" stroke-linecap="round" stroke-linejoin="round"/>
<path d="M1.74984 10.5C1.59513 10.5 1.44675 10.4385 1.33736 10.3291C1.22796 10.2197 1.1665 10.0714 1.1665 9.91667V2.33333C1.1665 2.17862 1.22796 2.03025 1.33736 1.92085C1.44675 1.81146 1.59513 1.75 1.74984 1.75H4.6665C5.28534 1.75 5.87883 1.99583 6.31642 2.43342C6.754 2.871 6.99984 3.46449 6.99984 4.08333C6.99984 3.46449 7.24567 2.871 7.68325 2.43342C8.12084 1.99583 8.71433 1.75 9.33317 1.75H12.2498C12.4045 1.75 12.5529 1.81146 12.6623 1.92085C12.7717 2.03025 12.8332 2.17862 12.8332 2.33333V9.91667C12.8332 10.0714 12.7717 10.2197 12.6623 10.3291C12.5529 10.4385 12.4045 10.5 12.2498 10.5H8.74984C8.28571 10.5 7.84059 10.6844 7.5124 11.0126C7.18421 11.3408 6.99984 11.7859 6.99984 12.25C6.99984 11.7859 6.81546 11.3408 6.48727 11.0126C6.15909 10.6844 5.71397 10.5 5.24984 10.5H1.74984Z" stroke="#9c64f7" stroke-width="1.16667" stroke-linecap="round" stroke-linejoin="round"/>
</svg>
