<svg width="56" height="56" viewBox="0 0 56 56" fill="none" xmlns="http://www.w3.org/2000/svg">
<g clip-path="url(#clip0_53_17)">
<path fill-rule="evenodd" clip-rule="evenodd" d="M28.335 48.7531C17.0584 48.7531 7.91687 39.6087 7.91687 28.335C7.91687 17.0613 17.0584 7.91687 28.335 7.91687C39.6116 7.91687 48.7531 17.0613 48.7531 28.335C48.7531 39.6087 39.6116 48.7531 28.335 48.7531ZM28.335 5C15.4468 5 5 15.4424 5 28.335C5 41.2276 15.4468 51.67 28.335 51.67C41.2232 51.67 51.67 41.2276 51.67 28.335C51.67 15.4424 41.2232 5 28.335 5ZM36.6729 19.9928C36.0982 19.424 35.1692 19.424 34.5946 19.9928L28.3263 26.264L22.1483 20.0802C21.5781 19.5114 20.6534 19.5114 20.0861 20.0802C19.5158 20.649 19.5158 21.5824 20.0861 22.1512L26.264 28.3204L20.0424 34.548C19.4692 35.1167 19.4692 36.05 20.0424 36.6334C20.617 37.2022 21.5474 37.2022 22.122 36.6334L28.3437 30.406L34.5217 36.5898C35.0919 37.1586 36.0166 37.1586 36.5854 36.5898C37.1556 36.021 37.1556 35.0876 36.5854 34.5188L30.406 28.3496L36.6729 22.0782C37.246 21.4949 37.246 20.5762 36.6729 19.9928Z" fill="#8B5CF6"/>
</g>
<defs>
<clipPath id="clip0_53_17">
<rect width="46.67" height="46.67" fill="white" transform="translate(5 5)"/>
</clipPath>
</defs>
</svg>
