<svg width="14" height="14" viewBox="0 0 14 14" fill="none" xmlns="http://www.w3.org/2000/svg">
<path d="M12.4951 6.37121C12.5996 6.32514 12.6882 6.24945 12.75 6.15351C12.8118 6.05758 12.8442 5.94561 12.843 5.83148C12.8418 5.71734 12.8072 5.60607 12.7434 5.51143C12.6796 5.41679 12.5894 5.34294 12.484 5.29905L7.48429 3.02171C7.3323 2.95238 7.16719 2.9165 7.00013 2.9165C6.83307 2.9165 6.66795 2.95238 6.51596 3.02171L1.51679 5.29671C1.41294 5.3422 1.32459 5.41696 1.26256 5.51185C1.20052 5.60675 1.16748 5.71767 1.16748 5.83105C1.16748 5.94442 1.20052 6.05534 1.26256 6.15024C1.32459 6.24513 1.41294 6.31989 1.51679 6.36538L6.51596 8.64504C6.66795 8.71437 6.83307 8.75025 7.00013 8.75025C7.16719 8.75025 7.3323 8.71437 7.48429 8.64504L12.4951 6.37121Z" stroke="#9c64f7" stroke-width="1.16667" stroke-linecap="round" stroke-linejoin="round"/>
<path d="M12.8335 5.83325V9.33325" stroke="#9c64f7" stroke-width="1.16667" stroke-linecap="round" stroke-linejoin="round"/>
<path d="M3.5 7.29175V9.33341C3.5 9.79754 3.86875 10.2427 4.52513 10.5709C5.1815 10.899 6.07174 11.0834 7 11.0834C7.92826 11.0834 8.8185 10.899 9.47487 10.5709C10.1313 10.2427 10.5 9.79754 10.5 9.33341V7.29175" stroke="#9c64f7" stroke-width="1.16667" stroke-linecap="round" stroke-linejoin="round"/>
</svg>
